<?xml version="1.0" encoding="UTF-8" standalone="no"?>
<!DOCTYPE svg PUBLIC "-//W3C//DTD SVG 1.1//EN"
 "http://www.w3.org/Graphics/SVG/1.1/DTD/svg11.dtd">
<!-- Generated by graphviz version 14.0.4 (20251115.1723)
 -->
<!-- Title: packages Pages: 1 -->
<svg width="3704pt" height="260pt"
 viewBox="0.00 0.00 3704.00 260.00" xmlns="http://www.w3.org/2000/svg" xmlns:xlink="http://www.w3.org/1999/xlink">
<g id="graph0" class="graph" transform="scale(1 1) rotate(0) translate(4 256)">
<title>packages</title>
<polygon fill="white" stroke="none" points="-4,4 -4,-256 3699.75,-256 3699.75,4 -4,4"/>
<!-- dashboard -->
<g id="node1" class="node">
<title>dashboard</title>
<polygon fill="none" stroke="black" points="104.25,-36 32.75,-36 32.75,0 104.25,0 104.25,-36"/>
<text xml:space="preserve" text-anchor="start" x="40.75" y="-12.95" font-family="Times,serif" font-size="14.00">dashboard</text>
</g>
<!-- dashboard.app -->
<g id="node2" class="node">
<title>dashboard.app</title>
<polygon fill="none" stroke="black" points="976.88,-36 882.12,-36 882.12,0 976.88,0 976.88,-36"/>
<text xml:space="preserve" text-anchor="start" x="890.12" y="-12.95" font-family="Times,serif" font-size="14.00">dashboard.app</text>
</g>
<!-- dashboard.backend.search -->
<g id="node7" class="node">
<title>dashboard.backend.search</title>
<polygon fill="none" stroke="black" points="349.75,-108 191.25,-108 191.25,-72 349.75,-72 349.75,-108"/>
<text xml:space="preserve" text-anchor="start" x="199.25" y="-84.95" font-family="Times,serif" font-size="14.00">dashboard.backend.search</text>
</g>
<!-- dashboard.app&#45;&gt;dashboard.backend.search -->
<g id="edge1" class="edge">
<title>dashboard.app&#45;&gt;dashboard.backend.search</title>
<path fill="none" stroke="black" d="M881.94,-21.83C785.54,-27.9 560.02,-43.85 361.02,-71.72"/>
<polygon fill="black" stroke="black" points="351.27,-73.1 360.54,-67.24 355.02,-72.57 361.17,-71.69 361.17,-71.69 361.17,-71.69 355.02,-72.57 361.8,-76.15 351.27,-73.1"/>
</g>
<!-- dashboard.config -->
<g id="node8" class="node">
<title>dashboard.config</title>
<polygon fill="none" stroke="black" points="477.38,-108 367.62,-108 367.62,-72 477.38,-72 477.38,-108"/>
<text xml:space="preserve" text-anchor="start" x="375.62" y="-84.95" font-family="Times,serif" font-size="14.00">dashboard.config</text>
</g>
<!-- dashboard.app&#45;&gt;dashboard.config -->
<g id="edge2" class="edge">
<title>dashboard.app&#45;&gt;dashboard.config</title>
<path fill="none" stroke="black" d="M881.63,-22.51C801.93,-28.83 636.92,-43.97 488.22,-71.83"/>
<polygon fill="black" stroke="black" points="478.74,-73.63 487.73,-67.34 482.46,-72.92 488.57,-71.76 488.57,-71.76 488.57,-71.76 482.46,-72.92 489.41,-76.18 478.74,-73.63"/>
</g>
<!-- dashboard.frontend.components.details_module -->
<g id="node12" class="node">
<title>dashboard.frontend.components.details_module</title>
<polygon fill="none" stroke="black" points="773.38,-108 495.62,-108 495.62,-72 773.38,-72 773.38,-108"/>
<text xml:space="preserve" text-anchor="start" x="503.62" y="-84.95" font-family="Times,serif" font-size="14.00">dashboard.frontend.components.details_module</text>
</g>
<!-- dashboard.app&#45;&gt;dashboard.frontend.components.details_module -->
<g id="edge3" class="edge">
<title>dashboard.app&#45;&gt;dashboard.frontend.components.details_module</title>
<path fill="none" stroke="black" d="M881.78,-30.32C837.84,-40.75 771.67,-56.45 718.83,-68.99"/>
<polygon fill="black" stroke="black" points="709.29,-71.25 717.99,-64.56 712.97,-70.38 719.02,-68.94 719.02,-68.94 719.02,-68.94 712.97,-70.38 720.06,-73.32 709.29,-71.25"/>
</g>
<!-- dashboard.frontend.components.results -->
<g id="node14" class="node">
<title>dashboard.frontend.components.results</title>
<polygon fill="none" stroke="black" points="1512.38,-108 1282.62,-108 1282.62,-72 1512.38,-72 1512.38,-108"/>
<text xml:space="preserve" text-anchor="start" x="1290.62" y="-84.95" font-family="Times,serif" font-size="14.00">dashboard.frontend.components.results</text>
</g>
<!-- dashboard.app&#45;&gt;dashboard.frontend.components.results -->
<g id="edge4" class="edge">
<title>dashboard.app&#45;&gt;dashboard.frontend.components.results</title>
<path fill="none" stroke="black" d="M976.95,-26.1C1045.42,-36.34 1174.36,-55.62 1271.5,-70.15"/>
<polygon fill="black" stroke="black" points="1281.37,-71.63 1270.82,-74.6 1277.63,-71.07 1271.48,-70.15 1271.48,-70.15 1271.48,-70.15 1277.63,-71.07 1272.15,-65.7 1281.37,-71.63"/>
</g>
<!-- dashboard.frontend.components.search_module -->
<g id="node16" class="node">
<title>dashboard.frontend.components.search_module</title>
<polygon fill="none" stroke="black" points="1068,-108 791,-108 791,-72 1068,-72 1068,-108"/>
<text xml:space="preserve" text-anchor="start" x="799" y="-84.95" font-family="Times,serif" font-size="14.00">dashboard.frontend.components.search_module</text>
</g>
<!-- dashboard.app&#45;&gt;dashboard.frontend.components.search_module -->
<g id="edge5" class="edge">
<title>dashboard.app&#45;&gt;dashboard.frontend.components.search_module</title>
<path fill="none" stroke="black" d="M929.5,-36.3C929.5,-43.68 929.5,-52.48 929.5,-60.75"/>
<polygon fill="black" stroke="black" points="929.5,-70.68 925,-60.68 929.5,-66.9 929.5,-60.68 929.5,-60.68 929.5,-60.68 929.5,-66.9 934,-60.68 929.5,-70.68"/>
</g>
<!-- dashboard.frontend.layout_v2 -->
<g id="node18" class="node">
<title>dashboard.frontend.layout_v2</title>
<polygon fill="none" stroke="black" points="1264.88,-108 1086.12,-108 1086.12,-72 1264.88,-72 1264.88,-108"/>
<text xml:space="preserve" text-anchor="start" x="1094.12" y="-84.95" font-family="Times,serif" font-size="14.00">dashboard.frontend.layout_v2</text>
</g>
<!-- dashboard.app&#45;&gt;dashboard.frontend.layout_v2 -->
<g id="edge6" class="edge">
<title>dashboard.app&#45;&gt;dashboard.frontend.layout_v2</title>
<path fill="none" stroke="black" d="M977.22,-32.58C1013.14,-42.8 1062.96,-56.98 1103.68,-68.56"/>
<polygon fill="black" stroke="black" points="1113.19,-71.27 1102.34,-72.86 1109.55,-70.23 1103.57,-68.53 1103.57,-68.53 1103.57,-68.53 1109.55,-70.23 1104.8,-64.2 1113.19,-71.27"/>
</g>
<!-- dashboard.utils.map_utils -->
<g id="node28" class="node">
<title>dashboard.utils.map_utils</title>
<polygon fill="none" stroke="black" points="2205.62,-108 2049.38,-108 2049.38,-72 2205.62,-72 2205.62,-108"/>
<text xml:space="preserve" text-anchor="start" x="2057.38" y="-84.95" font-family="Times,serif" font-size="14.00">dashboard.utils.map_utils</text>
</g>
<!-- dashboard.app&#45;&gt;dashboard.utils.map_utils -->
<g id="edge7" class="edge">
<title>dashboard.app&#45;&gt;dashboard.utils.map_utils</title>
<path fill="none" stroke="black" d="M977.31,-20.37C1159.02,-25.72 1807.66,-46.1 2037.93,-71.96"/>
<polygon fill="black" stroke="black" points="2047.7,-73.1 2037.24,-76.41 2043.94,-72.66 2037.76,-71.94 2037.76,-71.94 2037.76,-71.94 2043.94,-72.66 2038.28,-67.47 2047.7,-73.1"/>
</g>
<!-- dashboard.backend -->
<g id="node3" class="node">
<title>dashboard.backend</title>
<polygon fill="none" stroke="black" points="242.62,-36 122.38,-36 122.38,0 242.62,0 242.62,-36"/>
<text xml:space="preserve" text-anchor="start" x="130.38" y="-12.95" font-family="Times,serif" font-size="14.00">dashboard.backend</text>
</g>
<!-- dashboard.backend.results -->
<g id="node4" class="node">
<title>dashboard.backend.results</title>
<polygon fill="none" stroke="black" points="173.12,-108 13.88,-108 13.88,-72 173.12,-72 173.12,-108"/>
<text xml:space="preserve" text-anchor="start" x="21.88" y="-84.95" font-family="Times,serif" font-size="14.00">dashboard.backend.results</text>
</g>
<!-- dashboard.backend&#45;&gt;dashboard.backend.results -->
<g id="edge8" class="edge">
<title>dashboard.backend&#45;&gt;dashboard.backend.results</title>
<path fill="none" stroke="black" d="M160.5,-36.3C149.59,-44.89 136.23,-55.39 124.32,-64.76"/>
<polygon fill="black" stroke="black" points="116.51,-70.9 121.59,-61.18 119.49,-68.56 124.37,-64.72 124.37,-64.72 124.37,-64.72 119.49,-68.56 127.16,-68.25 116.51,-70.9"/>
</g>
<!-- dashboard.backend&#45;&gt;dashboard.backend.search -->
<g id="edge9" class="edge">
<title>dashboard.backend&#45;&gt;dashboard.backend.search</title>
<path fill="none" stroke="black" d="M204.25,-36.3C215.04,-44.89 228.25,-55.39 240.03,-64.76"/>
<polygon fill="black" stroke="black" points="247.74,-70.89 237.11,-68.19 244.78,-68.54 239.91,-64.67 239.91,-64.67 239.91,-64.67 244.78,-68.54 242.71,-61.15 247.74,-70.89"/>
</g>
<!-- dashboard.backend.results.base -->
<g id="node5" class="node">
<title>dashboard.backend.results.base</title>
<polygon fill="none" stroke="black" points="187,-252 0,-252 0,-216 187,-216 187,-252"/>
<text xml:space="preserve" text-anchor="start" x="8" y="-228.95" font-family="Times,serif" font-size="14.00">dashboard.backend.results.base</text>
</g>
<!-- dashboard.backend.results&#45;&gt;dashboard.backend.results.base -->
<g id="edge10" class="edge">
<title>dashboard.backend.results&#45;&gt;dashboard.backend.results.base</title>
<path fill="none" stroke="black" d="M72.23,-108.3C62.39,-117.69 51.74,-130.2 46.5,-144 40.82,-158.96 40.82,-165.04 46.5,-180 50.39,-190.24 57.26,-199.77 64.57,-207.84"/>
<polygon fill="black" stroke="black" points="71.38,-214.83 61.18,-210.82 68.74,-212.12 64.4,-207.67 64.4,-207.67 64.4,-207.67 68.74,-212.12 67.62,-204.53 71.38,-214.83"/>
</g>
<!-- dashboard.backend.results.concrete -->
<g id="node6" class="node">
<title>dashboard.backend.results.concrete</title>
<polygon fill="none" stroke="black" points="263.88,-180 55.12,-180 55.12,-144 263.88,-144 263.88,-180"/>
<text xml:space="preserve" text-anchor="start" x="63.12" y="-156.95" font-family="Times,serif" font-size="14.00">dashboard.backend.results.concrete</text>
</g>
<!-- dashboard.backend.results&#45;&gt;dashboard.backend.results.concrete -->
<g id="edge11" class="edge">
<title>dashboard.backend.results&#45;&gt;dashboard.backend.results.concrete</title>
<path fill="none" stroke="black" d="M109.81,-108.3C117.65,-116.61 127.18,-126.72 135.8,-135.86"/>
<polygon fill="black" stroke="black" points="142.54,-143.01 132.4,-138.82 139.94,-140.26 135.68,-135.73 135.68,-135.73 135.68,-135.73 139.94,-140.26 138.95,-132.65 142.54,-143.01"/>
</g>
<!-- dashboard.backend.results.concrete&#45;&gt;dashboard.backend.results.base -->
<g id="edge12" class="edge">
<title>dashboard.backend.results.concrete&#45;&gt;dashboard.backend.results.base</title>
<path fill="none" stroke="black" d="M143.19,-180.3C135.35,-188.61 125.82,-198.72 117.2,-207.86"/>
<polygon fill="black" stroke="black" points="110.46,-215.01 114.05,-204.65 113.06,-212.26 117.32,-207.73 117.32,-207.73 117.32,-207.73 113.06,-212.26 120.6,-210.82 110.46,-215.01"/>
</g>
<!-- dashboard.frontend -->
<g id="node9" class="node">
<title>dashboard.frontend</title>
<polygon fill="none" stroke="black" points="2693,-36 2572,-36 2572,0 2693,0 2693,-36"/>
<text xml:space="preserve" text-anchor="start" x="2580" y="-12.95" font-family="Times,serif" font-size="14.00">dashboard.frontend</text>
</g>
<!-- dashboard.frontend.layout -->
<g id="node17" class="node">
<title>dashboard.frontend.layout</title>
<polygon fill="none" stroke="black" points="2711.75,-108 2553.25,-108 2553.25,-72 2711.75,-72 2711.75,-108"/>
<text xml:space="preserve" text-anchor="start" x="2561.25" y="-84.95" font-family="Times,serif" font-size="14.00">dashboard.frontend.layout</text>
</g>
<!-- dashboard.frontend&#45;&gt;dashboard.frontend.layout -->
<g id="edge13" class="edge">
<title>dashboard.frontend&#45;&gt;dashboard.frontend.layout</title>
<path fill="none" stroke="black" d="M2632.5,-36.3C2632.5,-43.68 2632.5,-52.48 2632.5,-60.75"/>
<polygon fill="black" stroke="black" points="2632.5,-70.68 2628,-60.68 2632.5,-66.9 2632.5,-60.68 2632.5,-60.68 2632.5,-60.68 2632.5,-66.9 2637,-60.68 2632.5,-70.68"/>
</g>
<!-- dashboard.frontend.components -->
<g id="node10" class="node">
<title>dashboard.frontend.components</title>
<polygon fill="none" stroke="black" points="1740.88,-36 1550.12,-36 1550.12,0 1740.88,0 1740.88,-36"/>
<text xml:space="preserve" text-anchor="start" x="1558.12" y="-12.95" font-family="Times,serif" font-size="14.00">dashboard.frontend.components</text>
</g>
<!-- dashboard.frontend.components.details -->
<g id="node11" class="node">
<title>dashboard.frontend.components.details</title>
<polygon fill="none" stroke="black" points="1760.38,-108 1530.62,-108 1530.62,-72 1760.38,-72 1760.38,-108"/>
<text xml:space="preserve" text-anchor="start" x="1538.62" y="-84.95" font-family="Times,serif" font-size="14.00">dashboard.frontend.components.details</text>
</g>
<!-- dashboard.frontend.components&#45;&gt;dashboard.frontend.components.details -->
<g id="edge14" class="edge">
<title>dashboard.frontend.components&#45;&gt;dashboard.frontend.components.details</title>
<path fill="none" stroke="black" d="M1645.5,-36.3C1645.5,-43.68 1645.5,-52.48 1645.5,-60.75"/>
<polygon fill="black" stroke="black" points="1645.5,-70.68 1641,-60.68 1645.5,-66.9 1645.5,-60.68 1645.5,-60.68 1645.5,-60.68 1645.5,-66.9 1650,-60.68 1645.5,-70.68"/>
</g>
<!-- dashboard.frontend.components&#45;&gt;dashboard.frontend.components.results -->
<g id="edge15" class="edge">
<title>dashboard.frontend.components&#45;&gt;dashboard.frontend.components.results</title>
<path fill="none" stroke="black" d="M1583.56,-36.48C1548.96,-46.25 1505.66,-58.47 1469.55,-68.66"/>
<polygon fill="black" stroke="black" points="1460.25,-71.29 1468.66,-64.24 1463.89,-70.26 1469.88,-68.57 1469.88,-68.57 1469.88,-68.57 1463.89,-70.26 1471.1,-72.9 1460.25,-71.29"/>
</g>
<!-- dashboard.frontend.components.search_bar -->
<g id="node15" class="node">
<title>dashboard.frontend.components.search_bar</title>
<polygon fill="none" stroke="black" points="2031,-108 1778,-108 1778,-72 2031,-72 2031,-108"/>
<text xml:space="preserve" text-anchor="start" x="1786" y="-84.95" font-family="Times,serif" font-size="14.00">dashboard.frontend.components.search_bar</text>
</g>
<!-- dashboard.frontend.components&#45;&gt;dashboard.frontend.components.search_bar -->
<g id="edge16" class="edge">
<title>dashboard.frontend.components&#45;&gt;dashboard.frontend.components.search_bar</title>
<path fill="none" stroke="black" d="M1710.19,-36.48C1746.48,-46.29 1791.93,-58.57 1829.74,-68.79"/>
<polygon fill="black" stroke="black" points="1839.01,-71.3 1828.18,-73.04 1835.36,-70.31 1829.36,-68.69 1829.36,-68.69 1829.36,-68.69 1835.36,-70.31 1830.53,-64.35 1839.01,-71.3"/>
</g>
<!-- dashboard.frontend.components.helpers -->
<g id="node13" class="node">
<title>dashboard.frontend.components.helpers</title>
<polygon fill="none" stroke="black" points="3040.25,-36 2806.75,-36 2806.75,0 3040.25,0 3040.25,-36"/>
<text xml:space="preserve" text-anchor="start" x="2814.75" y="-12.95" font-family="Times,serif" font-size="14.00">dashboard.frontend.components.helpers</text>
</g>
<!-- dashboard.frontend.tabs -->
<g id="node19" class="node">
<title>dashboard.frontend.tabs</title>
<polygon fill="none" stroke="black" points="3300.75,-36 3154.25,-36 3154.25,0 3300.75,0 3300.75,-36"/>
<text xml:space="preserve" text-anchor="start" x="3162.25" y="-12.95" font-family="Times,serif" font-size="14.00">dashboard.frontend.tabs</text>
</g>
<!-- dashboard.frontend.tabs.change -->
<g id="node20" class="node">
<title>dashboard.frontend.tabs.change</title>
<polygon fill="none" stroke="black" points="2918.75,-108 2730.25,-108 2730.25,-72 2918.75,-72 2918.75,-108"/>
<text xml:space="preserve" text-anchor="start" x="2738.25" y="-84.95" font-family="Times,serif" font-size="14.00">dashboard.frontend.tabs.change</text>
</g>
<!-- dashboard.frontend.tabs&#45;&gt;dashboard.frontend.tabs.change -->
<g id="edge17" class="edge">
<title>dashboard.frontend.tabs&#45;&gt;dashboard.frontend.tabs.change</title>
<path fill="none" stroke="black" d="M3154.05,-31.76C3091.32,-42.65 3000.32,-58.46 2929.83,-70.71"/>
<polygon fill="black" stroke="black" points="2920.34,-72.35 2929.42,-66.21 2924.06,-71.71 2930.19,-70.64 2930.19,-70.64 2930.19,-70.64 2924.06,-71.71 2930.96,-75.08 2920.34,-72.35"/>
</g>
<!-- dashboard.frontend.tabs.details -->
<g id="node21" class="node">
<title>dashboard.frontend.tabs.details</title>
<polygon fill="none" stroke="black" points="3122.25,-108 2936.75,-108 2936.75,-72 3122.25,-72 3122.25,-108"/>
<text xml:space="preserve" text-anchor="start" x="2944.75" y="-84.95" font-family="Times,serif" font-size="14.00">dashboard.frontend.tabs.details</text>
</g>
<!-- dashboard.frontend.tabs&#45;&gt;dashboard.frontend.tabs.details -->
<g id="edge18" class="edge">
<title>dashboard.frontend.tabs&#45;&gt;dashboard.frontend.tabs.details</title>
<path fill="none" stroke="black" d="M3178.05,-36.48C3151.01,-46.04 3117.34,-57.95 3088.89,-68"/>
<polygon fill="black" stroke="black" points="3079.81,-71.21 3087.74,-63.64 3083.38,-69.95 3089.24,-67.88 3089.24,-67.88 3089.24,-67.88 3083.38,-69.95 3090.74,-72.12 3079.81,-71.21"/>
</g>
<!-- dashboard.frontend.tabs.state -->
<g id="node22" class="node">
<title>dashboard.frontend.tabs.state</title>
<polygon fill="none" stroke="black" points="3315,-108 3140,-108 3140,-72 3315,-72 3315,-108"/>
<text xml:space="preserve" text-anchor="start" x="3148" y="-84.95" font-family="Times,serif" font-size="14.00">dashboard.frontend.tabs.state</text>
</g>
<!-- dashboard.frontend.tabs&#45;&gt;dashboard.frontend.tabs.state -->
<g id="edge19" class="edge">
<title>dashboard.frontend.tabs&#45;&gt;dashboard.frontend.tabs.state</title>
<path fill="none" stroke="black" d="M3227.5,-36.3C3227.5,-43.68 3227.5,-52.48 3227.5,-60.75"/>
<polygon fill="black" stroke="black" points="3227.5,-70.68 3223,-60.68 3227.5,-66.9 3227.5,-60.68 3227.5,-60.68 3227.5,-60.68 3227.5,-66.9 3232,-60.68 3227.5,-70.68"/>
</g>
<!-- dashboard.frontend.tabs.stats -->
<g id="node23" class="node">
<title>dashboard.frontend.tabs.stats</title>
<polygon fill="none" stroke="black" points="3507.62,-108 3333.38,-108 3333.38,-72 3507.62,-72 3507.62,-108"/>
<text xml:space="preserve" text-anchor="start" x="3341.38" y="-84.95" font-family="Times,serif" font-size="14.00">dashboard.frontend.tabs.stats</text>
</g>
<!-- dashboard.frontend.tabs&#45;&gt;dashboard.frontend.tabs.stats -->
<g id="edge20" class="edge">
<title>dashboard.frontend.tabs&#45;&gt;dashboard.frontend.tabs.stats</title>
<path fill="none" stroke="black" d="M3275.7,-36.48C3301.94,-46 3334.59,-57.84 3362.25,-67.87"/>
<polygon fill="black" stroke="black" points="3371.43,-71.2 3360.5,-72.02 3367.88,-69.91 3362.03,-67.79 3362.03,-67.79 3362.03,-67.79 3367.88,-69.91 3363.56,-63.56 3371.43,-71.2"/>
</g>
<!-- dashboard.frontend.tabs.text -->
<g id="node24" class="node">
<title>dashboard.frontend.tabs.text</title>
<polygon fill="none" stroke="black" points="3695.75,-108 3525.25,-108 3525.25,-72 3695.75,-72 3695.75,-108"/>
<text xml:space="preserve" text-anchor="start" x="3533.25" y="-84.95" font-family="Times,serif" font-size="14.00">dashboard.frontend.tabs.text</text>
</g>
<!-- dashboard.frontend.tabs&#45;&gt;dashboard.frontend.tabs.text -->
<g id="edge21" class="edge">
<title>dashboard.frontend.tabs&#45;&gt;dashboard.frontend.tabs.text</title>
<path fill="none" stroke="black" d="M3300.89,-32.41C3361.49,-43.49 3447.97,-59.29 3514.13,-71.39"/>
<polygon fill="black" stroke="black" points="3523.79,-73.15 3513.14,-75.78 3520.07,-72.47 3513.95,-71.35 3513.95,-71.35 3513.95,-71.35 3520.07,-72.47 3514.76,-66.93 3523.79,-73.15"/>
</g>
<!-- dashboard.utils -->
<g id="node25" class="node">
<title>dashboard.utils</title>
<polygon fill="none" stroke="black" points="2343.75,-36 2245.25,-36 2245.25,0 2343.75,0 2343.75,-36"/>
<text xml:space="preserve" text-anchor="start" x="2253.25" y="-12.95" font-family="Times,serif" font-size="14.00">dashboard.utils</text>
</g>
<!-- dashboard.utils.display -->
<g id="node26" class="node">
<title>dashboard.utils.display</title>
<polygon fill="none" stroke="black" points="2365.12,-108 2223.88,-108 2223.88,-72 2365.12,-72 2365.12,-108"/>
<text xml:space="preserve" text-anchor="start" x="2231.88" y="-84.95" font-family="Times,serif" font-size="14.00">dashboard.utils.display</text>
</g>
<!-- dashboard.utils&#45;&gt;dashboard.utils.display -->
<g id="edge22" class="edge">
<title>dashboard.utils&#45;&gt;dashboard.utils.display</title>
<path fill="none" stroke="black" d="M2294.5,-36.3C2294.5,-43.68 2294.5,-52.48 2294.5,-60.75"/>
<polygon fill="black" stroke="black" points="2294.5,-70.68 2290,-60.68 2294.5,-66.9 2294.5,-60.68 2294.5,-60.68 2294.5,-60.68 2294.5,-66.9 2299,-60.68 2294.5,-70.68"/>
</g>
<!-- dashboard.utils.encoding -->
<g id="node27" class="node">
<title>dashboard.utils.encoding</title>
<polygon fill="none" stroke="black" points="2535.38,-108 2383.62,-108 2383.62,-72 2535.38,-72 2535.38,-108"/>
<text xml:space="preserve" text-anchor="start" x="2391.62" y="-84.95" font-family="Times,serif" font-size="14.00">dashboard.utils.encoding</text>
</g>
<!-- dashboard.utils&#45;&gt;dashboard.utils.encoding -->
<g id="edge23" class="edge">
<title>dashboard.utils&#45;&gt;dashboard.utils.encoding</title>
<path fill="none" stroke="black" d="M2335.71,-36.48C2357.75,-45.83 2385.07,-57.43 2408.44,-67.34"/>
<polygon fill="black" stroke="black" points="2417.41,-71.14 2406.44,-71.38 2413.93,-69.67 2408.2,-67.24 2408.2,-67.24 2408.2,-67.24 2413.93,-69.67 2409.96,-63.09 2417.41,-71.14"/>
</g>
<!-- dashboard.utils&#45;&gt;dashboard.utils.map_utils -->
<g id="edge24" class="edge">
<title>dashboard.utils&#45;&gt;dashboard.utils.map_utils</title>
<path fill="none" stroke="black" d="M2252.79,-36.48C2230.49,-45.83 2202.83,-57.43 2179.18,-67.34"/>
<polygon fill="black" stroke="black" points="2170.09,-71.15 2177.57,-63.13 2173.58,-69.69 2179.31,-67.28 2179.31,-67.28 2179.31,-67.28 2173.58,-69.69 2181.05,-71.43 2170.09,-71.15"/>
</g>
</g>
</svg>
