<?xml version="1.0" encoding="UTF-8" standalone="no"?>
<!DOCTYPE svg PUBLIC "-//W3C//DTD SVG 1.1//EN"
 "http://www.w3.org/Graphics/SVG/1.1/DTD/svg11.dtd">
<!-- Generated by graphviz version 14.0.4 (20251115.1723)
 -->
<!-- Title: packages Pages: 1 -->
<svg width="1126pt" height="332pt"
 viewBox="0.00 0.00 1126.00 332.00" xmlns="http://www.w3.org/2000/svg" xmlns:xlink="http://www.w3.org/1999/xlink">
<g id="graph0" class="graph" transform="scale(1 1) rotate(0) translate(4 328)">
<title>packages</title>
<polygon fill="white" stroke="none" points="-4,4 -4,-328 1121.62,-328 1121.62,4 -4,4"/>
<!-- streettransformer -->
<g id="node1" class="node">
<title>streettransformer</title>
<polygon fill="none" stroke="black" points="549.75,-36 440.75,-36 440.75,0 549.75,0 549.75,-36"/>
<text xml:space="preserve" text-anchor="start" x="448.75" y="-12.95" font-family="Times,serif" font-size="14.00">streettransformer</text>
</g>
<!-- streettransformer.clip_encoding -->
<g id="node4" class="node">
<title>streettransformer.clip_encoding</title>
<polygon fill="none" stroke="black" points="188.5,-108 0,-108 0,-72 188.5,-72 188.5,-108"/>
<text xml:space="preserve" text-anchor="start" x="8" y="-84.95" font-family="Times,serif" font-size="14.00">streettransformer.clip_encoding</text>
</g>
<!-- streettransformer&#45;&gt;streettransformer.clip_encoding -->
<g id="edge1" class="edge">
<title>streettransformer&#45;&gt;streettransformer.clip_encoding</title>
<path fill="none" stroke="black" d="M440.33,-28.59C378.57,-39.37 276.81,-57.13 199.58,-70.61"/>
<polygon fill="black" stroke="black" points="190.05,-72.28 199.13,-66.12 193.78,-71.63 199.9,-70.56 199.9,-70.56 199.9,-70.56 193.78,-71.63 200.68,-74.99 190.05,-72.28"/>
</g>
<!-- streettransformer.config -->
<g id="node5" class="node">
<title>streettransformer.config</title>
<polygon fill="none" stroke="black" points="609.5,-324 463,-324 463,-288 609.5,-288 609.5,-324"/>
<text xml:space="preserve" text-anchor="start" x="471" y="-300.95" font-family="Times,serif" font-size="14.00">streettransformer.config</text>
</g>
<!-- streettransformer&#45;&gt;streettransformer.config -->
<g id="edge2" class="edge">
<title>streettransformer&#45;&gt;streettransformer.config</title>
<path fill="none" stroke="black" d="M550.12,-34.41C598.38,-48.11 662.71,-66.74 674.25,-72 728.44,-96.69 758.61,-91.79 787.25,-144 828.9,-219.92 708.96,-265.37 620.81,-287.75"/>
<polygon fill="black" stroke="black" points="611.15,-290.14 619.78,-283.37 614.82,-289.23 620.85,-287.74 620.85,-287.74 620.85,-287.74 614.82,-289.23 621.93,-292.11 611.15,-290.14"/>
</g>
<!-- streettransformer.database -->
<g id="node6" class="node">
<title>streettransformer.database</title>
<polygon fill="none" stroke="black" points="485.5,-252 327,-252 327,-216 485.5,-216 485.5,-252"/>
<text xml:space="preserve" text-anchor="start" x="335" y="-228.95" font-family="Times,serif" font-size="14.00">streettransformer.database</text>
</g>
<!-- streettransformer&#45;&gt;streettransformer.database -->
<g id="edge3" class="edge">
<title>streettransformer&#45;&gt;streettransformer.database</title>
<path fill="none" stroke="black" d="M440.41,-22.25C371.92,-27.59 260.64,-40.91 235.25,-72 190.32,-127.01 285.7,-181.69 351.25,-211.03"/>
<polygon fill="black" stroke="black" points="360.37,-215.03 349.4,-215.14 356.91,-213.51 351.21,-211.02 351.21,-211.02 351.21,-211.02 356.91,-213.51 353.02,-206.89 360.37,-215.03"/>
</g>
<!-- streettransformer.embedding_db -->
<g id="node7" class="node">
<title>streettransformer.embedding_db</title>
<polygon fill="none" stroke="black" points="777.75,-180 584.75,-180 584.75,-144 777.75,-144 777.75,-180"/>
<text xml:space="preserve" text-anchor="start" x="592.75" y="-156.95" font-family="Times,serif" font-size="14.00">streettransformer.embedding_db</text>
</g>
<!-- streettransformer&#45;&gt;streettransformer.embedding_db -->
<g id="edge4" class="edge">
<title>streettransformer&#45;&gt;streettransformer.embedding_db</title>
<path fill="none" stroke="black" d="M549.96,-35.29C591.15,-47.98 641.78,-64.63 649.25,-72 665.59,-88.12 673.63,-113.17 677.56,-132.59"/>
<polygon fill="black" stroke="black" points="679.26,-142.35 673.11,-133.27 678.61,-138.62 677.54,-132.5 677.54,-132.5 677.54,-132.5 678.61,-138.62 681.97,-131.72 679.26,-142.35"/>
</g>
<!-- streettransformer.faiss_index -->
<g id="node8" class="node">
<title>streettransformer.faiss_index</title>
<polygon fill="none" stroke="black" points="640,-108 466.5,-108 466.5,-72 640,-72 640,-108"/>
<text xml:space="preserve" text-anchor="start" x="474.5" y="-84.95" font-family="Times,serif" font-size="14.00">streettransformer.faiss_index</text>
</g>
<!-- streettransformer&#45;&gt;streettransformer.faiss_index -->
<g id="edge5" class="edge">
<title>streettransformer&#45;&gt;streettransformer.faiss_index</title>
<path fill="none" stroke="black" d="M509.59,-36.3C516.33,-44.44 524.51,-54.31 531.95,-63.3"/>
<polygon fill="black" stroke="black" points="538.3,-70.96 528.46,-66.13 535.89,-68.05 531.92,-63.26 531.92,-63.26 531.92,-63.26 535.89,-68.05 535.39,-60.39 538.3,-70.96"/>
</g>
<!-- streettransformer.npz_cache -->
<g id="node9" class="node">
<title>streettransformer.npz_cache</title>
<polygon fill="none" stroke="black" points="489.75,-180 320.75,-180 320.75,-144 489.75,-144 489.75,-180"/>
<text xml:space="preserve" text-anchor="start" x="328.75" y="-156.95" font-family="Times,serif" font-size="14.00">streettransformer.npz_cache</text>
</g>
<!-- streettransformer&#45;&gt;streettransformer.npz_cache -->
<g id="edge6" class="edge">
<title>streettransformer&#45;&gt;streettransformer.npz_cache</title>
<path fill="none" stroke="black" d="M482.16,-36.38C474.64,-46.59 465.14,-59.84 457.25,-72 444.06,-92.33 430.28,-116.06 420.21,-133.9"/>
<polygon fill="black" stroke="black" points="415.35,-142.59 416.31,-131.66 417.2,-139.29 420.23,-133.86 420.23,-133.86 420.23,-133.86 417.2,-139.29 424.16,-136.06 415.35,-142.59"/>
</g>
<!-- streettransformer.query -->
<g id="node10" class="node">
<title>streettransformer.query</title>
<polygon fill="none" stroke="black" points="976.62,-108 833.88,-108 833.88,-72 976.62,-72 976.62,-108"/>
<text xml:space="preserve" text-anchor="start" x="841.88" y="-84.95" font-family="Times,serif" font-size="14.00">streettransformer.query</text>
</g>
<!-- streettransformer&#45;&gt;streettransformer.query -->
<g id="edge7" class="edge">
<title>streettransformer&#45;&gt;streettransformer.query</title>
<path fill="none" stroke="black" d="M550.13,-34.25C552.87,-34.87 555.59,-35.46 558.25,-36 673.44,-59.36 704.35,-52.47 820.25,-72 821.06,-72.14 821.87,-72.27 822.68,-72.41"/>
<polygon fill="black" stroke="black" points="832.23,-74.1 821.6,-76.79 828.5,-73.44 822.38,-72.36 822.38,-72.36 822.38,-72.36 828.5,-73.44 823.16,-67.93 832.23,-74.1"/>
</g>
<!-- streettransformer.whitening -->
<g id="node14" class="node">
<title>streettransformer.whitening</title>
<polygon fill="none" stroke="black" points="410.25,-108 244.25,-108 244.25,-72 410.25,-72 410.25,-108"/>
<text xml:space="preserve" text-anchor="start" x="252.25" y="-84.95" font-family="Times,serif" font-size="14.00">streettransformer.whitening</text>
</g>
<!-- streettransformer&#45;&gt;streettransformer.whitening -->
<g id="edge8" class="edge">
<title>streettransformer&#45;&gt;streettransformer.whitening</title>
<path fill="none" stroke="black" d="M453.29,-36.48C430.85,-45.83 403.03,-57.43 379.23,-67.34"/>
<polygon fill="black" stroke="black" points="370.09,-71.15 377.59,-63.15 373.58,-69.7 379.32,-67.3 379.32,-67.3 379.32,-67.3 373.58,-69.7 381.05,-71.46 370.09,-71.15"/>
</g>
<!-- streettransformer.cli -->
<g id="node2" class="node">
<title>streettransformer.cli</title>
<polygon fill="none" stroke="black" points="693,-36 567.5,-36 567.5,0 693,0 693,-36"/>
<text xml:space="preserve" text-anchor="start" x="575.5" y="-12.95" font-family="Times,serif" font-size="14.00">streettransformer.cli</text>
</g>
<!-- streettransformer.cli.query -->
<g id="node3" class="node">
<title>streettransformer.cli.query</title>
<polygon fill="none" stroke="black" points="871.25,-36 711.25,-36 711.25,0 871.25,0 871.25,-36"/>
<text xml:space="preserve" text-anchor="start" x="719.25" y="-12.95" font-family="Times,serif" font-size="14.00">streettransformer.cli.query</text>
</g>
<!-- streettransformer.database&#45;&gt;streettransformer.config -->
<g id="edge9" class="edge">
<title>streettransformer.database&#45;&gt;streettransformer.config</title>
<path fill="none" stroke="black" d="M438.72,-252.48C455.6,-261.57 476.42,-272.78 494.48,-282.51"/>
<polygon fill="black" stroke="black" points="503.12,-287.16 492.18,-286.38 499.79,-285.37 494.32,-282.42 494.32,-282.42 494.32,-282.42 499.79,-285.37 496.45,-278.46 503.12,-287.16"/>
</g>
<!-- streettransformer.embedding_db&#45;&gt;streettransformer.config -->
<g id="edge10" class="edge">
<title>streettransformer.embedding_db&#45;&gt;streettransformer.config</title>
<path fill="none" stroke="black" d="M663.47,-180.41C637.89,-205.46 590.6,-251.78 561.43,-280.34"/>
<polygon fill="black" stroke="black" points="554.59,-287.04 558.59,-276.82 557.29,-284.39 561.74,-280.04 561.74,-280.04 561.74,-280.04 557.29,-284.39 564.89,-283.25 554.59,-287.04"/>
</g>
<!-- streettransformer.embedding_db&#45;&gt;streettransformer.database -->
<g id="edge11" class="edge">
<title>streettransformer.embedding_db&#45;&gt;streettransformer.database</title>
<path fill="none" stroke="black" d="M612.57,-180.48C573.95,-190.31 525.57,-202.63 485.37,-212.86"/>
<polygon fill="black" stroke="black" points="475.72,-215.32 484.3,-208.49 479.38,-214.38 485.41,-212.85 485.41,-212.85 485.41,-212.85 479.38,-214.38 486.52,-217.21 475.72,-215.32"/>
</g>
<!-- streettransformer.faiss_index&#45;&gt;streettransformer.config -->
<g id="edge12" class="edge">
<title>streettransformer.faiss_index&#45;&gt;streettransformer.config</title>
<path fill="none" stroke="black" d="M551.89,-108.15C548.97,-144.93 542.07,-231.71 538.49,-276.76"/>
<polygon fill="black" stroke="black" points="537.72,-286.55 534.02,-276.23 538.01,-282.78 538.51,-276.58 538.51,-276.58 538.51,-276.58 538.01,-282.78 542.99,-276.94 537.72,-286.55"/>
</g>
<!-- streettransformer.faiss_index&#45;&gt;streettransformer.database -->
<g id="edge13" class="edge">
<title>streettransformer.faiss_index&#45;&gt;streettransformer.database</title>
<path fill="none" stroke="black" d="M546.05,-108.16C537.27,-127.49 520.88,-158.95 499.25,-180 486.9,-192.01 471.31,-202.28 456.43,-210.48"/>
<polygon fill="black" stroke="black" points="447.87,-215 454.61,-206.35 451.22,-213.23 456.72,-210.33 456.72,-210.33 456.72,-210.33 451.22,-213.23 458.82,-214.31 447.87,-215"/>
</g>
<!-- streettransformer.faiss_index&#45;&gt;streettransformer.npz_cache -->
<g id="edge14" class="edge">
<title>streettransformer.faiss_index&#45;&gt;streettransformer.npz_cache</title>
<path fill="none" stroke="black" d="M516.29,-108.48C496.79,-117.71 472.67,-129.11 451.89,-138.94"/>
<polygon fill="black" stroke="black" points="443.1,-143.1 450.22,-134.75 446.52,-141.48 452.14,-138.82 452.14,-138.82 452.14,-138.82 446.52,-141.48 454.07,-142.89 443.1,-143.1"/>
</g>
<!-- streettransformer.npz_cache&#45;&gt;streettransformer.config -->
<g id="edge15" class="edge">
<title>streettransformer.npz_cache&#45;&gt;streettransformer.config</title>
<path fill="none" stroke="black" d="M445.2,-180.29C461.98,-189.08 480.71,-201.09 494.25,-216 510.19,-233.55 521.19,-258.23 527.92,-277.14"/>
<polygon fill="black" stroke="black" points="531.01,-286.36 523.57,-278.31 529.81,-282.78 527.83,-276.88 527.83,-276.88 527.83,-276.88 529.81,-282.78 532.1,-275.45 531.01,-286.36"/>
</g>
<!-- streettransformer.npz_cache&#45;&gt;streettransformer.database -->
<g id="edge16" class="edge">
<title>streettransformer.npz_cache&#45;&gt;streettransformer.database</title>
<path fill="none" stroke="black" d="M405.5,-180.3C405.6,-187.68 405.73,-196.48 405.85,-204.75"/>
<polygon fill="black" stroke="black" points="405.99,-214.68 401.35,-204.74 405.93,-210.9 405.85,-204.68 405.85,-204.68 405.85,-204.68 405.93,-210.9 410.34,-204.61 405.99,-214.68"/>
</g>
<!-- streettransformer.query.base -->
<g id="node11" class="node">
<title>streettransformer.query.base</title>
<polygon fill="none" stroke="black" points="1053.12,-252 883.38,-252 883.38,-216 1053.12,-216 1053.12,-252"/>
<text xml:space="preserve" text-anchor="start" x="891.38" y="-228.95" font-family="Times,serif" font-size="14.00">streettransformer.query.base</text>
</g>
<!-- streettransformer.query&#45;&gt;streettransformer.query.base -->
<g id="edge17" class="edge">
<title>streettransformer.query&#45;&gt;streettransformer.query.base</title>
<path fill="none" stroke="black" d="M906.47,-108.19C908.32,-126.72 912.94,-156.69 924.25,-180 929,-189.8 935.94,-199.33 942.91,-207.55"/>
<polygon fill="black" stroke="black" points="949.57,-214.99 939.55,-210.54 947.05,-212.17 942.9,-207.54 942.9,-207.54 942.9,-207.54 947.05,-212.17 946.25,-204.54 949.57,-214.99"/>
</g>
<!-- streettransformer.query.mixins -->
<g id="node12" class="node">
<title>streettransformer.query.mixins</title>
<polygon fill="none" stroke="black" points="1059.88,-324 876.62,-324 876.62,-288 1059.88,-288 1059.88,-324"/>
<text xml:space="preserve" text-anchor="start" x="884.62" y="-300.95" font-family="Times,serif" font-size="14.00">streettransformer.query.mixins</text>
</g>
<!-- streettransformer.query&#45;&gt;streettransformer.query.mixins -->
<g id="edge18" class="edge">
<title>streettransformer.query&#45;&gt;streettransformer.query.mixins</title>
<path fill="none" stroke="black" d="M894.69,-108.27C877.26,-139.24 846.97,-205.3 874.25,-252 881.78,-264.89 893.72,-274.89 906.61,-282.55"/>
<polygon fill="black" stroke="black" points="915.04,-287.14 904.1,-286.31 911.72,-285.33 906.25,-282.35 906.25,-282.35 906.25,-282.35 911.72,-285.33 908.41,-278.4 915.04,-287.14"/>
</g>
<!-- streettransformer.query.queries -->
<g id="node13" class="node">
<title>streettransformer.query.queries</title>
<polygon fill="none" stroke="black" points="1117.62,-180 932.88,-180 932.88,-144 1117.62,-144 1117.62,-180"/>
<text xml:space="preserve" text-anchor="start" x="940.88" y="-156.95" font-family="Times,serif" font-size="14.00">streettransformer.query.queries</text>
</g>
<!-- streettransformer.query&#45;&gt;streettransformer.query.queries -->
<g id="edge19" class="edge">
<title>streettransformer.query&#45;&gt;streettransformer.query.queries</title>
<path fill="none" stroke="black" d="M935.22,-108.48C950.66,-117.49 969.67,-128.58 986.23,-138.24"/>
<polygon fill="black" stroke="black" points="994.61,-143.13 983.7,-141.97 991.34,-141.22 985.97,-138.09 985.97,-138.09 985.97,-138.09 991.34,-141.22 988.24,-134.2 994.61,-143.13"/>
</g>
<!-- streettransformer.query.base&#45;&gt;streettransformer.query.mixins -->
<g id="edge20" class="edge">
<title>streettransformer.query.base&#45;&gt;streettransformer.query.mixins</title>
<path fill="none" stroke="black" d="M968.25,-252.3C968.25,-259.68 968.25,-268.48 968.25,-276.75"/>
<polygon fill="black" stroke="black" points="968.25,-286.68 963.75,-276.68 968.25,-282.9 968.25,-276.68 968.25,-276.68 968.25,-276.68 968.25,-282.9 972.75,-276.68 968.25,-286.68"/>
</g>
<!-- streettransformer.query.queries&#45;&gt;streettransformer.query.base -->
<g id="edge21" class="edge">
<title>streettransformer.query.queries&#45;&gt;streettransformer.query.base</title>
<path fill="none" stroke="black" d="M1011.16,-180.3C1004.53,-188.44 996.5,-198.31 989.18,-207.3"/>
<polygon fill="black" stroke="black" points="982.95,-214.95 985.77,-204.36 985.33,-212.02 989.26,-207.2 989.26,-207.2 989.26,-207.2 985.33,-212.02 992.75,-210.04 982.95,-214.95"/>
</g>
<!-- streettransformer.query.queries&#45;&gt;streettransformer.query.mixins -->
<g id="edge22" class="edge">
<title>streettransformer.query.queries&#45;&gt;streettransformer.query.mixins</title>
<path fill="none" stroke="black" d="M1041.8,-180.38C1057.25,-198.81 1076.01,-228.45 1062.25,-252 1054.72,-264.89 1042.78,-274.89 1029.89,-282.55"/>
<polygon fill="black" stroke="black" points="1021.46,-287.14 1028.09,-278.4 1024.78,-285.33 1030.25,-282.35 1030.25,-282.35 1030.25,-282.35 1024.78,-285.33 1032.4,-286.31 1021.46,-287.14"/>
</g>
<!-- streettransformer.whitening&#45;&gt;streettransformer.config -->
<g id="edge23" class="edge">
<title>streettransformer.whitening&#45;&gt;streettransformer.config</title>
<path fill="none" stroke="black" d="M316.2,-108.39C310.51,-118.38 304.17,-131.42 301.25,-144 290.27,-191.33 284.01,-217.53 318.25,-252 337.16,-271.03 398.84,-284.93 451.79,-293.71"/>
<polygon fill="black" stroke="black" points="461.39,-295.25 450.8,-298.1 457.66,-294.65 451.52,-293.66 451.52,-293.66 451.52,-293.66 457.66,-294.65 452.24,-289.22 461.39,-295.25"/>
</g>
<!-- streettransformer.whitening&#45;&gt;streettransformer.database -->
<g id="edge24" class="edge">
<title>streettransformer.whitening&#45;&gt;streettransformer.database</title>
<path fill="none" stroke="black" d="M317.65,-108.28C308.57,-127.15 298.13,-157.66 311.25,-180 318.79,-192.84 330.7,-202.8 343.57,-210.44"/>
<polygon fill="black" stroke="black" points="352,-215.01 341.06,-214.19 348.67,-213.21 343.21,-210.24 343.21,-210.24 343.21,-210.24 348.67,-213.21 345.36,-206.28 352,-215.01"/>
</g>
<!-- streettransformer.whitening&#45;&gt;streettransformer.npz_cache -->
<g id="edge25" class="edge">
<title>streettransformer.whitening&#45;&gt;streettransformer.npz_cache</title>
<path fill="none" stroke="black" d="M346.53,-108.3C355.91,-116.72 367.34,-126.98 377.63,-136.21"/>
<polygon fill="black" stroke="black" points="385.01,-142.84 374.57,-139.51 382.2,-140.31 377.57,-136.16 377.57,-136.16 377.57,-136.16 382.2,-140.31 380.58,-132.81 385.01,-142.84"/>
</g>
</g>
</svg>
